<svg width="25" height="25" viewBox="0 0 25 25" fill="none" xmlns="http://www.w3.org/2000/svg">
<path fill-rule="evenodd" clip-rule="evenodd" d="M9.375 17.5V18.5C9.375 20.1569 10.7181 21.5 12.375 21.5C14.0319 21.5 15.375 20.1569 15.375 18.5V17.5" fill="#3B3C40"/>
<mask id="path-2-outside-1_8855_968" maskUnits="userSpaceOnUse" x="2.375" y="1.5" width="20" height="18" fill="black">
<rect fill="white" x="2.375" y="1.5" width="20" height="18"/>
<path fill-rule="evenodd" clip-rule="evenodd" d="M10.375 5.5C10.375 4.39543 11.2704 3.5 12.375 3.5C13.4796 3.5 14.375 4.39543 14.375 5.5C16.7152 6.60655 18.2536 8.91425 18.375 11.5V14.5C18.5276 15.7608 19.2699 16.8742 20.375 17.5H4.375C5.48011 16.8742 6.22239 15.7608 6.375 14.5V11.5C6.49637 8.91425 8.03483 6.60655 10.375 5.5Z"/>
</mask>
<path fill-rule="evenodd" clip-rule="evenodd" d="M10.375 5.5C10.375 4.39543 11.2704 3.5 12.375 3.5C13.4796 3.5 14.375 4.39543 14.375 5.5C16.7152 6.60655 18.2536 8.91425 18.375 11.5V14.5C18.5276 15.7608 19.2699 16.8742 20.375 17.5H4.375C5.48011 16.8742 6.22239 15.7608 6.375 14.5V11.5C6.49637 8.91425 8.03483 6.60655 10.375 5.5Z" fill="#3B3C40"/>
<path d="M8.875 5.5C8.875 6.32843 9.54657 7 10.375 7C11.2034 7 11.875 6.32843 11.875 5.5H8.875ZM14.375 5.5H12.875C12.875 6.08004 13.2094 6.60809 13.7338 6.85604L14.375 5.5ZM18.375 11.5H19.875C19.875 11.4765 19.8744 11.4531 19.8734 11.4297L18.375 11.5ZM18.375 14.5H16.875C16.875 14.5602 16.8786 14.6204 16.8859 14.6803L18.375 14.5ZM20.375 17.5V19C21.0562 19 21.6519 18.5409 21.8255 17.8822C21.9991 17.2234 21.7069 16.5304 21.1141 16.1947L20.375 17.5ZM4.375 17.5L3.63587 16.1947C3.04308 16.5304 2.75093 17.2234 2.9245 17.8822C3.09807 18.5409 3.69376 19 4.375 19V17.5ZM6.375 14.5L7.86413 14.6803C7.87137 14.6204 7.875 14.5602 7.875 14.5H6.375ZM6.375 11.5L4.87665 11.4297C4.87555 11.4531 4.875 11.4765 4.875 11.5H6.375ZM11.0162 6.85604C11.7651 6.50191 12.0852 5.60771 11.731 4.85879C11.3769 4.10987 10.4827 3.78983 9.73379 4.14396L11.0162 6.85604ZM11.875 5.5C11.875 5.22386 12.0989 5 12.375 5V2C10.442 2 8.875 3.567 8.875 5.5H11.875ZM12.375 5C12.6511 5 12.875 5.22386 12.875 5.5H15.875C15.875 3.567 14.308 2 12.375 2V5ZM13.7338 6.85604C15.5725 7.72548 16.7813 9.53866 16.8766 11.5703L19.8734 11.4297C19.726 8.28983 17.8578 5.48763 15.0162 4.14396L13.7338 6.85604ZM16.875 11.5V14.5H19.875V11.5H16.875ZM16.8859 14.6803C17.0957 16.4138 18.1163 17.9448 19.6359 18.8053L21.1141 16.1947C20.4234 15.8036 19.9595 15.1077 19.8641 14.3197L16.8859 14.6803ZM20.375 16H4.375V19H20.375V16ZM5.11413 18.8053C6.63366 17.9448 7.65429 16.4138 7.86413 14.6803L4.88587 14.3197C4.79049 15.1077 4.32657 15.8036 3.63587 16.1947L5.11413 18.8053ZM7.875 14.5V11.5H4.875V14.5H7.875ZM7.87335 11.5703C7.96871 9.53866 9.1775 7.72548 11.0162 6.85604L9.73379 4.14396C6.89216 5.48763 5.02403 8.28983 4.87665 11.4297L7.87335 11.5703Z" fill="white" mask="url(#path-2-outside-1_8855_968)"/>
</svg>
